<svg xmlns="http://www.w3.org/2000/svg" viewBox="0 0 26.2 26.22"><title>Ресурс 20</title><g id="Слой_2" data-name="Слой 2"><g id="Слой_1-2" data-name="Слой 1"><path d="M13.06,26.22A13.11,13.11,0,1,1,26.2,13.09,13.15,13.15,0,0,1,13.06,26.22Zm0-9.83h3.4c.38,0,.4,0,.43-.39.06-.8.11-1.6.14-2.39A24.29,24.29,0,0,0,16.89,10c0-.18-.09-.22-.26-.22H9.7c-.38,0-.38,0-.42.38a25.53,25.53,0,0,0-.13,4.15c0,.61.11,1.22.15,1.83,0,.17.09.22.25.21Zm-5.43,0a47.84,47.84,0,0,1,0-6.53l0,0H2.26a.23.23,0,0,0-.17.13,5.89,5.89,0,0,0-.24.86,15.4,15.4,0,0,0-.1,3.77,14.75,14.75,0,0,0,.3,1.59c0,.16.12.22.29.22H7.65ZM18.55,9.82a45.35,45.35,0,0,1,0,6.55l.1,0h5.28a.25.25,0,0,0,.19-.14,5.47,5.47,0,0,0,.24-.84,15.34,15.34,0,0,0,.1-3.79,14.92,14.92,0,0,0-.3-1.59c0-.16-.12-.21-.29-.21h-5.3Zm-9-1.61h7.08c0-.08,0-.14,0-.2a17.38,17.38,0,0,0-.78-3,8.06,8.06,0,0,0-1.27-2.43,3.5,3.5,0,0,0-.48-.49,1.38,1.38,0,0,0-2,0A5.32,5.32,0,0,0,11,3.59a15.84,15.84,0,0,0-1.33,4C9.61,7.79,9.59,8,9.56,8.21Zm0,9.79A16,16,0,0,0,11,22.59a4.91,4.91,0,0,0,1.2,1.58,1.34,1.34,0,0,0,1.86,0A4.35,4.35,0,0,0,15,23a12.3,12.3,0,0,0,1.32-3.49c.12-.48.21-1,.32-1.48ZM23.4,8.22l0-.08a11.56,11.56,0,0,0-2.9-3.75,11.42,11.42,0,0,0-4.26-2.3c.25.51.52,1,.74,1.49a21.2,21.2,0,0,1,1.28,4.28c.06.31.07.32.4.32l3.28,0Zm0,9.8-.32,0H21.58l-3,0c-.19,0-.26.08-.3.26-.13.6-.26,1.21-.42,1.81a15.4,15.4,0,0,1-1.41,3.64l-.24.4a11.37,11.37,0,0,0,4.37-2.37A11.64,11.64,0,0,0,23.44,18ZM7.84,8.19A18.33,18.33,0,0,1,10,2.07a11.73,11.73,0,0,0-4.8,2.79A10.27,10.27,0,0,0,2.77,8.19ZM2.76,18a11.6,11.6,0,0,0,3.56,4.3,10.72,10.72,0,0,0,3.54,1.73,19.52,19.52,0,0,1-2-6Z"/></g></g></svg>