<svg xmlns="http://www.w3.org/2000/svg" viewBox="0 0 106.43 31.03"><defs><style>.cls-1{fill:#fff;}</style></defs><title>Ресурс 15</title><g id="Слой_2" data-name="Слой 2"><g id="Слой_1-2" data-name="Слой 1"><path class="cls-1" d="M44,10.11a3.38,3.38,0,0,0-1.3-.7,5.45,5.45,0,0,0-1.65-.24h-4V21.85H39.7V17.22h1.53a4.38,4.38,0,0,0,1.64-.29,3.52,3.52,0,0,0,1.24-.82,3.62,3.62,0,0,0,.78-1.28,5.36,5.36,0,0,0,0-3.46,3.33,3.33,0,0,0-.84-1.25m-1.9,4.27a1.58,1.58,0,0,1-1,.37H39.72V11.61h1.41a1.59,1.59,0,0,1,1.09.35,1.5,1.5,0,0,1,.4,1.18,1.54,1.54,0,0,1-.44,1.26"/><path class="cls-1" d="M54.27,10.34A3.64,3.64,0,0,0,53,9.41,4.23,4.23,0,0,0,51.2,9a4.31,4.31,0,0,0-1.89.37,3.76,3.76,0,0,0-1.27,1,3.67,3.67,0,0,0-.7,1.3,4.93,4.93,0,0,0-.22,1.41v4.52a5.83,5.83,0,0,0,.23,1.64,3.76,3.76,0,0,0,.7,1.41,3.42,3.42,0,0,0,1.27.94,5,5,0,0,0,3.52.06,3.62,3.62,0,0,0,1.28-.82,3.8,3.8,0,0,0,.84-1.3,4.56,4.56,0,0,0,.3-1.71V13.13A4.62,4.62,0,0,0,55,11.65a3.93,3.93,0,0,0-.7-1.3M52.64,18a1.28,1.28,0,0,1-.41,1,1.41,1.41,0,0,1-1,.37,1.29,1.29,0,0,1-1.12-.47,2,2,0,0,1-.34-1.21V13a1.47,1.47,0,0,1,.08-.47,1.34,1.34,0,0,1,.7-.8,1.51,1.51,0,0,1,.7-.13,1.31,1.31,0,0,1,.66.16,1.37,1.37,0,0,1,.66.83,1.66,1.66,0,0,1,.06.42Z"/><path class="cls-1" d="M60.53,12.54a1.35,1.35,0,0,1,.24-.46,1.28,1.28,0,0,1,.44-.35,1.52,1.52,0,0,1,.7-.13,1.41,1.41,0,0,1,.66.15,1.71,1.71,0,0,1,.46.35,1.25,1.25,0,0,1,.26.45,3.84,3.84,0,0,1,.12.43l2.5-.75a4.33,4.33,0,0,0-.44-1.2,3.68,3.68,0,0,0-.8-1,3.83,3.83,0,0,0-1.18-.7,4.38,4.38,0,0,0-1.57-.26A4.33,4.33,0,0,0,60,9.43a3.66,3.66,0,0,0-1.26,1,3.72,3.72,0,0,0-.7,1.3,4.93,4.93,0,0,0-.22,1.41v4.52a5.87,5.87,0,0,0,.23,1.64,3.87,3.87,0,0,0,.7,1.41,3.38,3.38,0,0,0,1.26.94A4.57,4.57,0,0,0,61.9,22a4.14,4.14,0,0,0,2.63-.84,3.67,3.67,0,0,0,1.35-2.32l-2.52-.7a1.44,1.44,0,0,1-1.46,1.33A1.23,1.23,0,0,1,60.8,19a2.11,2.11,0,0,1-.32-1.21V13a1.64,1.64,0,0,1,.07-.47"/><path class="cls-1" d="M70.82,12.54a1.35,1.35,0,0,1,.24-.46,1.28,1.28,0,0,1,.44-.35,1.51,1.51,0,0,1,.7-.13,1.41,1.41,0,0,1,.66.15,1.71,1.71,0,0,1,.46.35,1.24,1.24,0,0,1,.27.45,4,4,0,0,1,.12.43l2.5-.75a4.36,4.36,0,0,0-.44-1.2,3.69,3.69,0,0,0-.8-1,3.83,3.83,0,0,0-1.18-.7,4.89,4.89,0,0,0-3.46.11,3.66,3.66,0,0,0-1.26,1,3.71,3.71,0,0,0-.7,1.3,4.93,4.93,0,0,0-.22,1.41v4.52a5.87,5.87,0,0,0,.23,1.64,3.86,3.86,0,0,0,.7,1.41,3.38,3.38,0,0,0,1.26.94,4.56,4.56,0,0,0,1.87.35,4.14,4.14,0,0,0,2.63-.84,3.67,3.67,0,0,0,1.35-2.32l-2.52-.7a1.44,1.44,0,0,1-1.46,1.33,1.23,1.23,0,0,1-1.11-.47,2.11,2.11,0,0,1-.32-1.21V13a1.64,1.64,0,0,1,.07-.47"/><polygon class="cls-1" points="78.68 21.84 86.07 21.84 86.07 19.34 81.33 19.34 81.33 16.64 85.41 16.64 85.41 14.21 81.33 14.21 81.33 11.59 86.07 11.59 86.07 9.14 78.68 9.14 78.68 21.84"/><polygon class="cls-1" points="87.53 11.55 90.25 11.55 90.25 21.84 92.88 21.84 92.88 11.55 95.59 11.55 95.59 9.14 87.53 9.14 87.53 11.55"/><polygon class="cls-1" points="104.04 9.14 100.41 16.51 100.37 16.51 100.37 9.14 97.75 9.14 97.75 21.84 100.22 21.84 103.76 14.93 103.78 14.93 103.78 21.84 106.43 21.84 106.43 9.14 104.04 9.14"/><path class="cls-1" d="M17.1,7.53,2.68,6.77A15.45,15.45,0,0,0,0,15.5a15.69,15.69,0,0,0,.21,2.56l17-10a2.11,2.11,0,0,1-.12-.53"/><path class="cls-1" d="M20.92,8.48l9.94,9.43A15.55,15.55,0,0,0,28.23,6.56L21.3,7.4a2.11,2.11,0,0,1-.36,1.09"/><path class="cls-1" d="M17.64,8.72l-17,11.2A15.57,15.57,0,0,0,8,29.08L18,9a2.07,2.07,0,0,1-.32-.28"/><path class="cls-1" d="M18.65,9.34l-9,20.52a15.5,15.5,0,0,0,11.7,0L19.06,9.39a2,2,0,0,1-.42-.06"/><path class="cls-1" d="M19.84,9.29,23,29.09a15.56,15.56,0,0,0,7.39-9.2L20.36,9.06a2.11,2.11,0,0,1-.5.24"/><path class="cls-1" d="M17.86,5.68,14.61,0A15.5,15.5,0,0,0,4,5.14L17.17,6.72a2.11,2.11,0,0,1,.7-1"/><path class="cls-1" d="M19.22,5.21A2.11,2.11,0,0,1,21.11,6.5L27,5.09A15.5,15.5,0,0,0,16.5,0L18.7,5.26a2.11,2.11,0,0,1,.53-.06"/></g></g></svg>