<?xml version="1.0" encoding="utf-8"?>
<!-- Generator: Adobe Illustrator 23.0.1, SVG Export Plug-In . SVG Version: 6.00 Build 0)  -->
<svg version="1.1" id="Layer_1" xmlns="http://www.w3.org/2000/svg" xmlns:xlink="http://www.w3.org/1999/xlink" x="0px" y="0px"
	 viewBox="0 0 31 31" style="enable-background:new 0 0 31 31;" xml:space="preserve">
<title>Ресурс 15</title>
<g id="Слой_2">
	<g id="Слой_1-2">
		<path d="M17.1,7.5L2.7,6.8C0.9,9.3,0,12.4,0,15.5c0,0.9,0.1,1.7,0.2,2.6l17-10C17.1,7.9,17.1,7.7,17.1,7.5"/>
		<path d="M20.9,8.5l9.9,9.4c0.6-4-0.3-8.1-2.6-11.3l-6.9,0.8C21.3,7.8,21.2,8.2,20.9,8.5"/>
		<path d="M17.6,8.7l-17,11.2c1.2,3.9,3.8,7.2,7.4,9.2L18,9C17.9,8.9,17.8,8.8,17.6,8.7"/>
		<path d="M18.6,9.3l-9,20.5c3.8,1.5,7.9,1.5,11.7,0L19.1,9.4C18.9,9.4,18.8,9.4,18.6,9.3"/>
		<path d="M19.8,9.3L23,29.1c3.6-2,6.2-5.3,7.4-9.2l-10-10.8C20.2,9.2,20,9.2,19.8,9.3"/>
		<path d="M17.9,5.7L14.6,0C10.5,0.2,6.7,2.1,4,5.1l13.2,1.6C17.3,6.3,17.5,6,17.9,5.7"/>
		<path d="M19.2,5.2c0.8,0,1.6,0.5,1.9,1.3L27,5.1c-2.7-3-6.5-4.8-10.5-5.1l2.2,5.3C18.9,5.2,19.1,5.2,19.2,5.2"/>
	</g>
</g>
</svg>
