<?xml version="1.0" encoding="utf-8"?>
<!-- Generator: Adobe Illustrator 23.0.1, SVG Export Plug-In . SVG Version: 6.00 Build 0)  -->
<svg version="1.1" id="Layer_1" xmlns="http://www.w3.org/2000/svg" xmlns:xlink="http://www.w3.org/1999/xlink" x="0px" y="0px"
	 viewBox="0 0 28 28" style="enable-background:new 0 0 28 28;" xml:space="preserve">
<title>Ресурс 19</title>
<path d="M23.6,9H4.4C4.2,9,4,8.8,4,8.6V7.4C4,7.2,4.2,7,4.4,7h19.1C23.8,7,24,7.2,24,7.4v1.1C24,8.8,23.8,9,23.6,9z"/>
<path d="M23.6,15H4.4C4.2,15,4,14.8,4,14.6v-1.1C4,13.2,4.2,13,4.4,13h19.1c0.2,0,0.4,0.2,0.4,0.4v1.1C24,14.8,23.8,15,23.6,15z"/>
<path d="M23.6,21H4.4C4.2,21,4,20.8,4,20.6v-1.1C4,19.2,4.2,19,4.4,19h19.1c0.2,0,0.4,0.2,0.4,0.4v1.1C24,20.8,23.8,21,23.6,21z"/>
</svg>
