<svg xmlns="http://www.w3.org/2000/svg" viewBox="0 0 28.44 29.38"><defs><style>.cls-1{stroke:#000;stroke-miterlimit:10;}</style></defs><title>Ресурс 19</title><g id="Слой_2" data-name="Слой 2"><g id="Слой_1-2" data-name="Слой 1"><path class="cls-1" d="M6.85,28.88a1.9,1.9,0,0,1-1.39-1,2.72,2.72,0,0,1-.22-1c0-1.1,0-2.2,0-3.3,0-.1,0-.2,0-.33l-.3,0c-.64,0-1.28,0-1.91,0a2.74,2.74,0,0,1-2.5-2.59c0-.41,0-.83,0-1.25,0-2.45,0-4.9,0-7.34A2.84,2.84,0,0,1,1.62,9.58,2.54,2.54,0,0,1,3.1,9c.6,0,1.2,0,1.8,0h.33V8.67q0-3,0-6.07A1.92,1.92,0,0,1,7.33.5H21.11a1.92,1.92,0,0,1,2.1,2.1q0,3,0,6V9h.36a16.54,16.54,0,0,1,2.15.08,2.65,2.65,0,0,1,2.2,2.54c0,1,0,2.09,0,3.13,0,1.82,0,3.64,0,5.46a2.85,2.85,0,0,1-1.12,2.41,2.89,2.89,0,0,1-1.84.57H23.2v.33c0,1,0,2,0,3a2,2,0,0,1-1.62,2.3ZM5.24,22.3V19.44h18v2.82c.66,0,1.29,0,1.91,0a1.86,1.86,0,0,0,1.86-2q0-4.16,0-8.31a1.87,1.87,0,0,0-2-2H3.44a2.23,2.23,0,0,0-.93.2A1.87,1.87,0,0,0,1.45,12c0,2.48,0,5,0,7.45,0,.34,0,.68,0,1a1.72,1.72,0,0,0,1.33,1.65A20.72,20.72,0,0,0,5.24,22.3ZM6.18,9H22.26V8.73q0-3.09,0-6.18a1,1,0,0,0-1.11-1.1H7.29a1,1,0,0,0-1.11,1.1q0,2.77,0,5.54ZM22.26,20.39H6.18v.27q0,3.09,0,6.18a1,1,0,0,0,1.11,1.1H21.15a1,1,0,0,0,1.11-1.1q0-2.77,0-5.54Z"/><path class="cls-1" d="M23.2,13.73a.94.94,0,1,1-.94-.93A.94.94,0,0,1,23.2,13.73Z"/><path class="cls-1" d="M7.14,23.19v-.91H21.3v.91Z"/><path class="cls-1" d="M7.14,26v-.91H21.3V26Z"/></g></g></svg>