<svg xmlns="http://www.w3.org/2000/svg" viewBox="0 0 31.78 39.73"><defs><style>.cls-1{fill:#303030;}</style></defs><title>Ресурс 18</title><g id="Слой_2" data-name="Слой 2"><g id="Слой_1-2" data-name="Слой 1"><path class="cls-1" d="M7.95,23.85v4h9.91v4H7.94v7.94H4V31.81H0v-4H4v-4H0v-4H4V0h.19C9.45,0,14.74,0,20,0a11.46,11.46,0,0,1,8,3.23,11.5,11.5,0,0,1,3.56,6.41,11.6,11.6,0,0,1-2.28,9.56,11.69,11.69,0,0,1-5.77,4.06,11.24,11.24,0,0,1-3.51.57H7.95Zm0-4H19.66a10.62,10.62,0,0,0,1.25-.07,7.48,7.48,0,0,0,3.77-1.54A8,8,0,0,0,20,4h-12Z"/></g></g></svg>