<svg xmlns="http://www.w3.org/2000/svg" viewBox="0 0 28.61 28.74"><defs><style>.cls-1{fill:none;stroke:#303030;stroke-miterlimit:10;stroke-width:2px;}</style></defs><title>Ресурс 9</title><g id="Слой_2" data-name="Слой 2"><g id="Слой_1-2" data-name="Слой 1"><path class="cls-1" d="M19.07,26.88c0-.1,0-.18,0-.26q0-4.4,0-8.8c0-.2.06-.26.26-.26h2.86c.31,0,.36,0,.39-.34l.34-2.83c0-.26.06-.53.1-.79s-.06-.29-.28-.29H19.08a1.82,1.82,0,0,1,0-.19c0-.87,0-1.74,0-2.6a2.52,2.52,0,0,1,.17-.75,1.19,1.19,0,0,1,1-.73,14.42,14.42,0,0,1,2.5-.11c.38,0,.39,0,.39-.38,0-1,0-2,0-3,0-.23-.07-.36-.31-.37s-.44-.06-.66-.07c-.86,0-1.72-.06-2.58,0a4.9,4.9,0,0,0-3.18,1.13A4.6,4.6,0,0,0,15,8.39a7.22,7.22,0,0,0-.31,2.25c0,.82,0,1.63,0,2.45,0,.2-.06.24-.25.24H11.59c-.28,0-.3,0-.3.3q0,1.82,0,3.63c0,.3,0,.32.33.32h2.83c.2,0,.26.05.26.26q0,4.82,0,9.64c0,.22-.05.3-.28.28-.66-.07-1.33-.11-2-.2a15.52,15.52,0,0,1-1.93-.4,12.23,12.23,0,0,1-3-1.3A13.3,13.3,0,0,1,2.4,20.28a12.82,12.82,0,0,1-1.29-4.23A13,13,0,0,1,4.66,5.13a12.8,12.8,0,0,1,7.17-3.9A13.34,13.34,0,0,1,24.3,23.14a13.38,13.38,0,0,1-4.89,3.54A3,3,0,0,0,19.07,26.88Z"/></g></g></svg>