<svg xmlns="http://www.w3.org/2000/svg" viewBox="0 0 27.05 27.05"><defs><style>.cls-1{fill:none;stroke:#303030;stroke-miterlimit:10;stroke-width:2px;}</style></defs><title>Ресурс 8</title><g id="Слой_2" data-name="Слой 2"><g id="Слой_1-2" data-name="Слой 1"><path class="cls-1" d="M13.52,26.05A12.53,12.53,0,1,1,26.05,13.54,12.52,12.52,0,0,1,13.52,26.05Zm-9.7-6.32v0a1.08,1.08,0,0,0,.14.13c.34.22.68.46,1,.65a7.38,7.38,0,0,0,2.07.7,19.72,19.72,0,0,0,2.17.32,10.56,10.56,0,0,0,3-.25A11.18,11.18,0,0,0,18.18,18a11.54,11.54,0,0,0,3-5.89,5.87,5.87,0,0,0,.12-1.52c0-.19,0-.39,0-.58a.85.85,0,0,1,.34-.74,1.78,1.78,0,0,1,.21-.16,4.71,4.71,0,0,0,1.42-1.52s0,0,0,0l-.51.16L21.29,8s-.1,0-.15,0,0-.11.08-.14a2.11,2.11,0,0,1,.22-.11.93.93,0,0,0,.2-.13,4.54,4.54,0,0,0,1-1.54.6.6,0,0,0,0-.08h0l-.1,0-.91.38c-.25.11-.48.24-.73.33a1,1,0,0,1-1-.19l-.35-.29a2,2,0,0,0-.82-.46,8.61,8.61,0,0,0-1.08-.26,3.67,3.67,0,0,0-1.89.31,3.81,3.81,0,0,0-2.19,2.1,4.43,4.43,0,0,0-.3,2c0,.2,0,.39,0,.61A11.32,11.32,0,0,1,5,6.29l-.05,0-.07.09a2.85,2.85,0,0,0-.46,1.36,4.68,4.68,0,0,0,.48,2.48,2.06,2.06,0,0,0,.86,1,.56.56,0,0,1,.19.18.78.78,0,0,1,.07.22l0,0-1.64-.46a4.65,4.65,0,0,0,.9,2.48,4.14,4.14,0,0,0,2.25,1.4,2.58,2.58,0,0,1-1.66.15c.11.26.18.49.3.7a3.84,3.84,0,0,0,2.7,2c.23.05.47.08.73.12A7.74,7.74,0,0,1,3.82,19.73Z"/></g></g></svg>